<svg width="222" height="36" viewBox="0 0 222 36" fill="none" xmlns="http://www.w3.org/2000/svg">
<rect y="15.5806" width="20" height="19.6304" rx="9.8152" fill="#9C69E2"/>
<rect x="29" y="0.857666" width="20" height="34.3532" rx="10" fill="#F063B8"/>
<path d="M70.58 11.6422H76.16C77.0933 11.6422 77.9933 11.7889 78.86 12.0822C79.7267 12.3622 80.4933 12.7956 81.16 13.3822C81.8267 13.9689 82.36 14.7089 82.76 15.6022C83.16 16.4822 83.36 17.5222 83.36 18.7222C83.36 19.9356 83.1267 20.9889 82.66 21.8822C82.2067 22.7622 81.6133 23.4956 80.88 24.0822C80.16 24.6556 79.3533 25.0889 78.46 25.3822C77.58 25.6622 76.7133 25.8022 75.86 25.8022H70.58V11.6422ZM74.98 23.5222C75.7667 23.5222 76.5067 23.4356 77.2 23.2622C77.9067 23.0756 78.52 22.7956 79.04 22.4222C79.56 22.0356 79.9667 21.5422 80.26 20.9422C80.5667 20.3289 80.72 19.5889 80.72 18.7222C80.72 17.8689 80.5867 17.1356 80.32 16.5222C80.0533 15.9089 79.68 15.4156 79.2 15.0422C78.7333 14.6556 78.1733 14.3756 77.52 14.2022C76.88 14.0156 76.1733 13.9222 75.4 13.9222H73.1V23.5222H74.98ZM91.5358 24.4822H91.4758C91.1291 25.0289 90.6891 25.4289 90.1558 25.6822C89.6224 25.9222 89.0358 26.0422 88.3958 26.0422C87.9558 26.0422 87.5224 25.9822 87.0958 25.8622C86.6824 25.7422 86.3091 25.5622 85.9758 25.3222C85.6558 25.0822 85.3958 24.7822 85.1958 24.4222C84.9958 24.0622 84.8958 23.6422 84.8958 23.1622C84.8958 22.6422 84.9891 22.2022 85.1758 21.8422C85.3624 21.4689 85.6091 21.1622 85.9158 20.9222C86.2358 20.6689 86.6024 20.4689 87.0158 20.3222C87.4291 20.1756 87.8558 20.0689 88.2958 20.0022C88.7491 19.9222 89.2024 19.8756 89.6558 19.8622C90.1091 19.8356 90.5358 19.8222 90.9358 19.8222H91.5358V19.5622C91.5358 18.9622 91.3291 18.5156 90.9158 18.2222C90.5024 17.9156 89.9758 17.7622 89.3358 17.7622C88.8291 17.7622 88.3558 17.8556 87.9158 18.0422C87.4758 18.2156 87.0958 18.4556 86.7758 18.7622L85.5158 17.5022C86.0491 16.9556 86.6691 16.5622 87.3758 16.3222C88.0958 16.0822 88.8358 15.9622 89.5958 15.9622C90.2758 15.9622 90.8491 16.0422 91.3158 16.2022C91.7824 16.3489 92.1691 16.5422 92.4758 16.7822C92.7824 17.0222 93.0158 17.3022 93.1758 17.6222C93.3491 17.9289 93.4691 18.2422 93.5358 18.5622C93.6158 18.8822 93.6624 19.1956 93.6758 19.5022C93.6891 19.7956 93.6958 20.0556 93.6958 20.2822V25.8022H91.5358V24.4822ZM91.3958 21.5022H90.8958C90.5624 21.5022 90.1891 21.5156 89.7758 21.5422C89.3624 21.5689 88.9691 21.6356 88.5958 21.7422C88.2358 21.8356 87.9291 21.9822 87.6758 22.1822C87.4224 22.3689 87.2958 22.6356 87.2958 22.9822C87.2958 23.2089 87.3424 23.4022 87.4358 23.5622C87.5424 23.7089 87.6758 23.8356 87.8358 23.9422C87.9958 24.0489 88.1758 24.1289 88.3758 24.1822C88.5758 24.2222 88.7758 24.2422 88.9758 24.2422C89.8024 24.2422 90.4091 24.0489 90.7958 23.6622C91.1958 23.2622 91.3958 22.7222 91.3958 22.0422V21.5022ZM95.158 18.2422V16.2022H97.138V13.4222H99.538V16.2022H102.178V18.2422H99.538V22.4422C99.538 22.9222 99.6246 23.3022 99.798 23.5822C99.9846 23.8622 100.345 24.0022 100.878 24.0022C101.091 24.0022 101.325 23.9822 101.578 23.9422C101.831 23.8889 102.031 23.8089 102.178 23.7022V25.7222C101.925 25.8422 101.611 25.9222 101.238 25.9622C100.878 26.0156 100.558 26.0422 100.278 26.0422C99.638 26.0422 99.1113 25.9689 98.698 25.8222C98.298 25.6889 97.978 25.4822 97.738 25.2022C97.5113 24.9089 97.3513 24.5489 97.258 24.1222C97.178 23.6956 97.138 23.2022 97.138 22.6422V18.2422H95.158ZM110.051 24.4822H109.991C109.645 25.0289 109.205 25.4289 108.671 25.6822C108.138 25.9222 107.551 26.0422 106.911 26.0422C106.471 26.0422 106.038 25.9822 105.611 25.8622C105.198 25.7422 104.825 25.5622 104.491 25.3222C104.171 25.0822 103.911 24.7822 103.711 24.4222C103.511 24.0622 103.411 23.6422 103.411 23.1622C103.411 22.6422 103.505 22.2022 103.691 21.8422C103.878 21.4689 104.125 21.1622 104.431 20.9222C104.751 20.6689 105.118 20.4689 105.531 20.3222C105.945 20.1756 106.371 20.0689 106.811 20.0022C107.265 19.9222 107.718 19.8756 108.171 19.8622C108.625 19.8356 109.051 19.8222 109.451 19.8222H110.051V19.5622C110.051 18.9622 109.845 18.5156 109.431 18.2222C109.018 17.9156 108.491 17.7622 107.851 17.7622C107.345 17.7622 106.871 17.8556 106.431 18.0422C105.991 18.2156 105.611 18.4556 105.291 18.7622L104.031 17.5022C104.565 16.9556 105.185 16.5622 105.891 16.3222C106.611 16.0822 107.351 15.9622 108.111 15.9622C108.791 15.9622 109.365 16.0422 109.831 16.2022C110.298 16.3489 110.685 16.5422 110.991 16.7822C111.298 17.0222 111.531 17.3022 111.691 17.6222C111.865 17.9289 111.985 18.2422 112.051 18.5622C112.131 18.8822 112.178 19.1956 112.191 19.5022C112.205 19.7956 112.211 20.0556 112.211 20.2822V25.8022H110.051V24.4822ZM109.911 21.5022H109.411C109.078 21.5022 108.705 21.5156 108.291 21.5422C107.878 21.5689 107.485 21.6356 107.111 21.7422C106.751 21.8356 106.445 21.9822 106.191 22.1822C105.938 22.3689 105.811 22.6356 105.811 22.9822C105.811 23.2089 105.858 23.4022 105.951 23.5622C106.058 23.7089 106.191 23.8356 106.351 23.9422C106.511 24.0489 106.691 24.1289 106.891 24.1822C107.091 24.2222 107.291 24.2422 107.491 24.2422C108.318 24.2422 108.925 24.0489 109.311 23.6622C109.711 23.2622 109.911 22.7222 109.911 22.0422V21.5022ZM113.434 11.6422H116.194L118.854 21.8422H118.894L122.074 11.6422H124.554L127.674 21.8422H127.714L130.494 11.6422H133.054L128.934 25.8022H126.534L123.254 15.0222H123.214L119.934 25.8022H117.614L113.434 11.6422ZM139.68 24.4822H139.62C139.274 25.0289 138.834 25.4289 138.3 25.6822C137.767 25.9222 137.18 26.0422 136.54 26.0422C136.1 26.0422 135.667 25.9822 135.24 25.8622C134.827 25.7422 134.454 25.5622 134.12 25.3222C133.8 25.0822 133.54 24.7822 133.34 24.4222C133.14 24.0622 133.04 23.6422 133.04 23.1622C133.04 22.6422 133.134 22.2022 133.32 21.8422C133.507 21.4689 133.754 21.1622 134.06 20.9222C134.38 20.6689 134.747 20.4689 135.16 20.3222C135.574 20.1756 136 20.0689 136.44 20.0022C136.894 19.9222 137.347 19.8756 137.8 19.8622C138.254 19.8356 138.68 19.8222 139.08 19.8222H139.68V19.5622C139.68 18.9622 139.474 18.5156 139.06 18.2222C138.647 17.9156 138.12 17.7622 137.48 17.7622C136.974 17.7622 136.5 17.8556 136.06 18.0422C135.62 18.2156 135.24 18.4556 134.92 18.7622L133.66 17.5022C134.194 16.9556 134.814 16.5622 135.52 16.3222C136.24 16.0822 136.98 15.9622 137.74 15.9622C138.42 15.9622 138.994 16.0422 139.46 16.2022C139.927 16.3489 140.314 16.5422 140.62 16.7822C140.927 17.0222 141.16 17.3022 141.32 17.6222C141.494 17.9289 141.614 18.2422 141.68 18.5622C141.76 18.8822 141.807 19.1956 141.82 19.5022C141.834 19.7956 141.84 20.0556 141.84 20.2822V25.8022H139.68V24.4822ZM139.54 21.5022H139.04C138.707 21.5022 138.334 21.5156 137.92 21.5422C137.507 21.5689 137.114 21.6356 136.74 21.7422C136.38 21.8356 136.074 21.9822 135.82 22.1822C135.567 22.3689 135.44 22.6356 135.44 22.9822C135.44 23.2089 135.487 23.4022 135.58 23.5622C135.687 23.7089 135.82 23.8356 135.98 23.9422C136.14 24.0489 136.32 24.1289 136.52 24.1822C136.72 24.2222 136.92 24.2422 137.12 24.2422C137.947 24.2422 138.554 24.0489 138.94 23.6622C139.34 23.2622 139.54 22.7222 139.54 22.0422V21.5022ZM144.423 16.2022H146.823V17.7222H146.863C147.129 17.1622 147.509 16.7289 148.003 16.4222C148.496 16.1156 149.063 15.9622 149.703 15.9622C149.849 15.9622 149.989 15.9756 150.123 16.0022C150.269 16.0289 150.416 16.0622 150.563 16.1022V18.4222C150.363 18.3689 150.163 18.3289 149.963 18.3022C149.776 18.2622 149.589 18.2422 149.403 18.2422C148.843 18.2422 148.389 18.3489 148.043 18.5622C147.709 18.7622 147.449 18.9956 147.263 19.2622C147.089 19.5289 146.969 19.7956 146.903 20.0622C146.849 20.3289 146.823 20.5289 146.823 20.6622V25.8022H144.423V16.2022ZM153.764 21.8422C153.844 22.5622 154.124 23.1222 154.604 23.5222C155.084 23.9222 155.664 24.1222 156.344 24.1222C156.944 24.1222 157.444 24.0022 157.844 23.7622C158.258 23.5089 158.618 23.1956 158.924 22.8222L160.644 24.1222C160.084 24.8156 159.458 25.3089 158.764 25.6022C158.071 25.8956 157.344 26.0422 156.584 26.0422C155.864 26.0422 155.184 25.9222 154.544 25.6822C153.904 25.4422 153.351 25.1022 152.884 24.6622C152.418 24.2222 152.044 23.6956 151.764 23.0822C151.498 22.4556 151.364 21.7622 151.364 21.0022C151.364 20.2422 151.498 19.5556 151.764 18.9422C152.044 18.3156 152.418 17.7822 152.884 17.3422C153.351 16.9022 153.904 16.5622 154.544 16.3222C155.184 16.0822 155.864 15.9622 156.584 15.9622C157.251 15.9622 157.858 16.0822 158.404 16.3222C158.964 16.5489 159.438 16.8822 159.824 17.3222C160.224 17.7622 160.531 18.3089 160.744 18.9622C160.971 19.6022 161.084 20.3422 161.084 21.1822V21.8422H153.764ZM158.684 20.0422C158.671 19.3356 158.451 18.7822 158.024 18.3822C157.598 17.9689 157.004 17.7622 156.244 17.7622C155.524 17.7622 154.951 17.9689 154.524 18.3822C154.111 18.7956 153.858 19.3489 153.764 20.0422H158.684ZM165.729 17.5422H165.769C165.955 17.1422 166.282 16.7822 166.749 16.4622C167.229 16.1289 167.842 15.9622 168.589 15.9622C169.229 15.9622 169.769 16.0689 170.209 16.2822C170.662 16.4956 171.029 16.7756 171.309 17.1222C171.589 17.4689 171.789 17.8689 171.909 18.3222C172.029 18.7756 172.089 19.2489 172.089 19.7422V25.8022H169.689V20.9422C169.689 20.6756 169.675 20.3822 169.649 20.0622C169.622 19.7289 169.549 19.4222 169.429 19.1422C169.322 18.8489 169.149 18.6089 168.909 18.4222C168.669 18.2222 168.342 18.1222 167.929 18.1222C167.529 18.1222 167.189 18.1889 166.909 18.3222C166.642 18.4556 166.415 18.6356 166.229 18.8622C166.055 19.0889 165.929 19.3489 165.849 19.6422C165.769 19.9356 165.729 20.2422 165.729 20.5622V25.8022H163.329V10.6822H165.729V17.5422ZM174.333 21.0022C174.333 20.2422 174.466 19.5556 174.733 18.9422C175.013 18.3156 175.386 17.7822 175.853 17.3422C176.32 16.9022 176.873 16.5622 177.513 16.3222C178.153 16.0822 178.833 15.9622 179.553 15.9622C180.273 15.9622 180.953 16.0822 181.593 16.3222C182.233 16.5622 182.786 16.9022 183.253 17.3422C183.72 17.7822 184.086 18.3156 184.353 18.9422C184.633 19.5556 184.773 20.2422 184.773 21.0022C184.773 21.7622 184.633 22.4556 184.353 23.0822C184.086 23.6956 183.72 24.2222 183.253 24.6622C182.786 25.1022 182.233 25.4422 181.593 25.6822C180.953 25.9222 180.273 26.0422 179.553 26.0422C178.833 26.0422 178.153 25.9222 177.513 25.6822C176.873 25.4422 176.32 25.1022 175.853 24.6622C175.386 24.2222 175.013 23.6956 174.733 23.0822C174.466 22.4556 174.333 21.7622 174.333 21.0022ZM176.733 21.0022C176.733 21.3756 176.793 21.7356 176.913 22.0822C177.046 22.4289 177.233 22.7356 177.473 23.0022C177.726 23.2689 178.026 23.4822 178.373 23.6422C178.72 23.8022 179.113 23.8822 179.553 23.8822C179.993 23.8822 180.386 23.8022 180.733 23.6422C181.08 23.4822 181.373 23.2689 181.613 23.0022C181.866 22.7356 182.053 22.4289 182.173 22.0822C182.306 21.7356 182.373 21.3756 182.373 21.0022C182.373 20.6289 182.306 20.2689 182.173 19.9222C182.053 19.5756 181.866 19.2689 181.613 19.0022C181.373 18.7356 181.08 18.5222 180.733 18.3622C180.386 18.2022 179.993 18.1222 179.553 18.1222C179.113 18.1222 178.72 18.2022 178.373 18.3622C178.026 18.5222 177.726 18.7356 177.473 19.0022C177.233 19.2689 177.046 19.5756 176.913 19.9222C176.793 20.2689 176.733 20.6289 176.733 21.0022ZM195.78 25.8022H193.5V24.2622H193.46C193.233 24.7422 192.887 25.1622 192.42 25.5222C191.953 25.8689 191.32 26.0422 190.52 26.0422C189.88 26.0422 189.333 25.9422 188.88 25.7422C188.44 25.5289 188.08 25.2489 187.8 24.9022C187.52 24.5422 187.32 24.1356 187.2 23.6822C187.08 23.2289 187.02 22.7556 187.02 22.2622V16.2022H189.42V21.0622C189.42 21.3289 189.433 21.6289 189.46 21.9622C189.487 22.2822 189.553 22.5889 189.66 22.8822C189.78 23.1622 189.953 23.4022 190.18 23.6022C190.42 23.7889 190.753 23.8822 191.18 23.8822C191.58 23.8822 191.913 23.8156 192.18 23.6822C192.46 23.5489 192.687 23.3689 192.86 23.1422C193.047 22.9156 193.18 22.6556 193.26 22.3622C193.34 22.0689 193.38 21.7622 193.38 21.4422V16.2022H195.78V25.8022ZM203.625 18.8622C203.158 18.2089 202.531 17.8822 201.745 17.8822C201.425 17.8822 201.111 17.9622 200.805 18.1222C200.498 18.2822 200.345 18.5422 200.345 18.9022C200.345 19.1956 200.471 19.4089 200.725 19.5422C200.978 19.6756 201.298 19.7889 201.685 19.8822C202.071 19.9756 202.485 20.0756 202.925 20.1822C203.378 20.2756 203.798 20.4289 204.185 20.6422C204.571 20.8422 204.891 21.1222 205.145 21.4822C205.398 21.8422 205.525 22.3356 205.525 22.9622C205.525 23.5356 205.398 24.0222 205.145 24.4222C204.905 24.8089 204.585 25.1222 204.185 25.3622C203.798 25.6022 203.358 25.7756 202.865 25.8822C202.371 25.9889 201.878 26.0422 201.385 26.0422C200.638 26.0422 199.951 25.9356 199.325 25.7222C198.698 25.5089 198.138 25.1222 197.645 24.5622L199.245 23.0622C199.551 23.4089 199.878 23.6956 200.225 23.9222C200.585 24.1356 201.018 24.2422 201.525 24.2422C201.698 24.2422 201.878 24.2222 202.065 24.1822C202.251 24.1422 202.425 24.0756 202.585 23.9822C202.745 23.8889 202.871 23.7756 202.965 23.6422C203.071 23.4956 203.125 23.3289 203.125 23.1422C203.125 22.8089 202.998 22.5622 202.745 22.4022C202.491 22.2422 202.171 22.1156 201.785 22.0222C201.398 21.9156 200.978 21.8222 200.525 21.7422C200.085 21.6489 199.671 21.5089 199.285 21.3222C198.898 21.1222 198.578 20.8489 198.325 20.5022C198.071 20.1556 197.945 19.6756 197.945 19.0622C197.945 18.5289 198.051 18.0689 198.265 17.6822C198.491 17.2822 198.785 16.9556 199.145 16.7022C199.505 16.4489 199.918 16.2622 200.385 16.1422C200.851 16.0222 201.325 15.9622 201.805 15.9622C202.445 15.9622 203.078 16.0756 203.705 16.3022C204.331 16.5156 204.838 16.8889 205.225 17.4222L203.625 18.8622ZM209.311 21.8422C209.391 22.5622 209.671 23.1222 210.151 23.5222C210.631 23.9222 211.211 24.1222 211.891 24.1222C212.491 24.1222 212.991 24.0022 213.391 23.7622C213.805 23.5089 214.165 23.1956 214.471 22.8222L216.191 24.1222C215.631 24.8156 215.005 25.3089 214.311 25.6022C213.618 25.8956 212.891 26.0422 212.131 26.0422C211.411 26.0422 210.731 25.9222 210.091 25.6822C209.451 25.4422 208.898 25.1022 208.431 24.6622C207.965 24.2222 207.591 23.6956 207.311 23.0822C207.045 22.4556 206.911 21.7622 206.911 21.0022C206.911 20.2422 207.045 19.5556 207.311 18.9422C207.591 18.3156 207.965 17.7822 208.431 17.3422C208.898 16.9022 209.451 16.5622 210.091 16.3222C210.731 16.0822 211.411 15.9622 212.131 15.9622C212.798 15.9622 213.405 16.0822 213.951 16.3222C214.511 16.5489 214.985 16.8822 215.371 17.3222C215.771 17.7622 216.078 18.3089 216.291 18.9622C216.518 19.6022 216.631 20.3422 216.631 21.1822V21.8422H209.311ZM214.231 20.0422C214.218 19.3356 213.998 18.7822 213.571 18.3822C213.145 17.9689 212.551 17.7622 211.791 17.7622C211.071 17.7622 210.498 17.9689 210.071 18.3822C209.658 18.7956 209.405 19.3489 209.311 20.0422H214.231Z" fill="#212353"/>
</svg>
